<?xml version="1.0" encoding="UTF-8"?>
<!-- Creator: CorelDRAW X7 -->
<svg xmlns="http://www.w3.org/2000/svg" xml:space="preserve" width="8.5in" height="11in" preserveAspectRatio="xMidYMid meet" version="1.1" style="shape-rendering:geometricPrecision; text-rendering:geometricPrecision; image-rendering:optimizeQuality; fill-rule:evenodd; clip-rule:evenodd"
viewBox="0 0 8500 11000"
 xmlns:xlink="http://www.w3.org/1999/xlink"
 enable-background="new 0 0 1000 1000">
 <defs>
  <style type="text/css">
   <![CDATA[
    .fil0 {fill:#006FCF}
    .fil1 {fill:white}
   ]]>
  </style>
 </defs>
 <g id="Layer_x0020_1">
  <metadata id="CorelCorpID_0Corel-Layer"/>
  <path class="fil0" d="M1502 15l5455 0c151,0 272,134 272,300l0 3400c0,165 -121,300 -272,300l-5455 0c-151,0 -272,-135 -272,-300l0 -3400c0,-166 121,-300 272,-300z"/>
  <path class="fil1" d="M7229 506l0 1521 0 343 -332 336 332 343 0 474 -584 0 -251 -274 -252 274 -1721 0 0 -1402 -567 0 712 -1615 676 0 198 429 0 -429 815 0 183 457 182 -457 609 0 0 0zm-475 222l-213 511 -103 253 -104 -253 -214 -511 -475 0 0 1184 -519 -1184 -404 0 -522 1184 341 0 95 -231 571 0 95 231 343 0 300 0 0 -711 -2 -174 70 174 291 711 266 0 292 -711 68 -174 -2 174 0 711 300 0 0 -1184 -474 0 0 0 0 0 0 0zm-1905 428l71 -182 70 182 114 274 -366 0 111 -274 0 0 0 0 0 0zm1916 965l-365 387 -362 -387 -393 0 560 591 -560 588 384 0 365 -387 362 387 393 0 -560 -592 560 -587 -384 0 0 0zm-2109 0l0 1179 989 0 0 -251 -689 0 0 -213 675 0 0 -250 -675 0 0 -213 689 0 0 -252 -989 0 0 0 0 0z"/>
 </g>
</svg>
